#tb 0: 1/44100
#media_type 0: audio
#codec_id 0: pcm_s16le
#sample_rate 0: 44100
#channel_layout_name 0: stereo
0,          0,          0,     4096,    16384, 0x6b35db3b
0,       4096,       4096,     4096,    16384, 0x582fe581
0,       8192,       8192,     4096,    16384, 0x0f55e259
0,      12288,      12288,     4096,    16384, 0xba42f06f
0,      16384,      16384,     4096,    16384, 0x39b6e859
0,      20480,      20480,     4096,    16384, 0x7749dc23
0,      24576,      24576,     4096,    16384, 0xfdc5e177
0,      28672,      28672,     4096,    16384, 0x462bd6d5
0,      32768,      32768,     4096,    16384, 0x51e8d975
0,      36864,      36864,     4096,    16384, 0x582fe581
0,      40960,      40960,     4096,    16384, 0x5bc7003e
0,      45056,      45056,     4096,    16384, 0xf847d62b
0,      49152,      49152,     4096,    16384, 0xdde5e9bd
0,      53248,      53248,     4096,    16384, 0xef6cdab9
0,      57344,      57344,     4096,    16384, 0x9017e2fb
0,      61440,      61440,     4096,    16384, 0x3fddecaf
0,      65536,      65536,     4096,    16384, 0xf57305f6
0,      69632,      69632,     4096,    16384, 0xa1badca3
0,      73728,      73728,     4096,    16384, 0x9d17bfef
0,      77824,      77824,     4096,    16384, 0x75f5fd09
0,      81920,      81920,     4096,    16384, 0x126ee7a3
0,      86016,      86016,     4096,    16384, 0x5725b25b
0,      90112,      90112,     4096,    16384, 0x6ce76896
0,      94208,      94208,     4096,    16384, 0xa1bc4931
0,      98304,      98304,     4096,    16384, 0x7f46fdb9
0,     102400,     102400,     4096,    16384, 0x1a90bb2b
0,     106496,     106496,     4096,    16384, 0x5ce1b0dd
0,     110592,     110592,     4096,    16384, 0x48fb4b8e
0,     114688,     114688,     4096,    16384, 0xa9f0c4dc
0,     118784,     118784,     4096,    16384, 0x888432da
0,     122880,     122880,     4096,    16384, 0x5d85689f
0,     126976,     126976,     4096,    16384, 0x05ae8dd2
0,     131072,     131072,     4096,    16384, 0x8448d7b2
0,     135168,     135168,     4096,    16384, 0x0e6cf699
0,     139264,     139264,     4096,    16384, 0x2b31e88b
0,     143360,     143360,     4096,    16384, 0xf798df15
0,     147456,     147456,     4096,    16384, 0xc816e1b0
0,     151552,     151552,     4096,    16384, 0x3e95d348
0,     155648,     155648,     4096,    16384, 0x9b7bd67c
0,     159744,     159744,     4096,    16384, 0x7c0fe1a0
0,     163840,     163840,     4096,    16384, 0xad1adc4c
0,     167936,     167936,     4096,    16384, 0x2196e132
0,     172032,     172032,     4096,    16384, 0x138fce98
0,     176128,     176128,     4096,    16384, 0xea330b70
0,     180224,     180224,     4096,    16384, 0x9362e830
0,     184320,     184320,     4096,    16384, 0x1b3583e3
0,     188416,     188416,     4096,    16384, 0x3545e3b2
0,     192512,     192512,     4096,    16384, 0xbd6a0535
0,     196608,     196608,     4096,    16384, 0x9e6ae400
0,     200704,     200704,     4096,    16384, 0x87feb3e3
0,     204800,     204800,     4096,    16384, 0x45b3e139
0,     208896,     208896,     4096,    16384, 0x51dc24ff
0,     212992,     212992,     4096,    16384, 0x9362e830
0,     217088,     217088,     4096,    16384, 0x1b3583e3
0,     221184,     221184,     4096,    16384, 0x3545e3b2
0,     225280,     225280,     4096,    16384, 0xbd6a0535
0,     229376,     229376,     4096,    16384, 0x9e6ae400
0,     233472,     233472,     4096,    16384, 0x87feb3e3
0,     237568,     237568,     4096,    16384, 0x45b3e139
0,     241664,     241664,     4096,    16384, 0x51dc24ff
0,     245760,     245760,     4096,    16384, 0x9362e830
0,     249856,     249856,     4096,    16384, 0x1b3583e3
0,     253952,     253952,     4096,    16384, 0x3545e3b2
0,     258048,     258048,     4096,    16384, 0xbd6a0535
0,     262144,     262144,     2456,     9824, 0xa2441ed2
